<?xml version="1.0" standalone="no"?>
<!DOCTYPE svg PUBLIC "-//W3C//DTD SVG 20010904//EN"
 "http://www.w3.org/TR/2001/REC-SVG-20010904/DTD/svg10.dtd">
<svg version="1.0" xmlns="http://www.w3.org/2000/svg"
 width="700.000000pt" height="700.000000pt" viewBox="0 0 700.000000 700.000000"
 preserveAspectRatio="xMidYMid meet">
<metadata>
Created by potrace 1.14, written by Peter Selinger 2001-2017
</metadata>
<g transform="translate(0.000000,700.000000) scale(0.100000,-0.100000)"
fill="#000000" stroke="none">
<path d="M2753 6924 c4 -7 -8 -11 -36 -12 -23 -1 -72 -2 -110 -3 -37 0 -70 -5
-73 -10 -3 -5 -10 -9 -15 -9 -6 0 -7 6 -3 13 5 8 2 8 -9 -2 -9 -7 -17 -11 -17
-7 0 4 -13 0 -29 -9 -19 -9 -32 -11 -36 -5 -4 6 -16 4 -30 -6 -14 -9 -32 -14
-40 -10 -9 3 -13 2 -10 -4 3 -6 -3 -10 -14 -10 -12 0 -21 -4 -21 -8 0 -4 -9
-9 -20 -10 -11 -1 -28 -2 -37 -3 -10 -1 -24 -6 -30 -11 -7 -6 -20 -8 -28 -4
-9 3 -13 2 -10 -4 5 -9 -1 -12 -21 -9 -4 0 -11 -5 -15 -13 -7 -10 -9 -10 -9 2
-1 12 -3 11 -11 -3 -6 -9 -14 -15 -20 -12 -5 4 -9 1 -9 -5 0 -6 -4 -9 -9 -5
-5 3 -13 0 -16 -6 -4 -5 -13 -8 -20 -5 -7 2 -16 -2 -19 -11 -4 -9 -9 -13 -12
-10 -4 3 -13 -1 -21 -9 -9 -8 -21 -13 -28 -10 -8 3 -16 -2 -19 -10 -3 -9 -10
-12 -16 -9 -5 3 -10 2 -10 -2 0 -5 -25 -22 -55 -37 -30 -16 -52 -32 -50 -36 5
-8 -32 -23 -48 -21 -5 1 -6 -3 -2 -9 5 -9 -7 -14 -27 -11 -4 0 -5 -5 -2 -12 3
-8 -12 -23 -36 -36 -26 -15 -39 -28 -36 -37 3 -8 2 -13 -2 -13 -21 3 -32 -3
-32 -17 0 -8 -4 -13 -9 -9 -5 3 -12 -4 -16 -15 -3 -11 -13 -20 -21 -20 -8 0
-12 -5 -9 -10 3 -6 -4 -14 -17 -19 -13 -4 -22 -11 -20 -15 5 -15 1 -27 -8 -21
-5 3 -10 1 -10 -5 0 -6 -15 -26 -32 -44 -18 -18 -34 -39 -36 -47 -2 -8 -10
-18 -18 -22 -8 -4 -14 -14 -14 -22 0 -8 -10 -24 -22 -35 -19 -18 -20 -22 -8
-30 13 -9 13 -10 0 -10 -14 0 -38 -39 -40 -65 -1 -5 -8 -14 -16 -18 -8 -4 -14
-14 -14 -21 0 -7 -9 -30 -19 -52 -10 -21 -21 -48 -23 -59 -1 -11 -6 -22 -10
-25 -4 -3 -9 -18 -12 -34 -3 -16 -9 -32 -13 -35 -4 -3 -8 -19 -8 -36 0 -16 -4
-36 -10 -44 -5 -8 -10 -24 -11 -35 0 -12 -5 -30 -10 -41 -6 -11 -9 -30 -8 -42
0 -13 -3 -23 -8 -23 -5 0 -6 -4 -3 -10 3 -5 2 -10 -4 -10 -6 0 -8 -7 -5 -15 4
-8 1 -15 -5 -15 -6 0 -11 -6 -11 -14 0 -8 -5 -18 -12 -22 -7 -5 -8 -3 -3 6 6
9 4 11 -4 6 -7 -5 -10 -10 -7 -13 11 -11 -95 -138 -114 -138 -4 0 -14 -8 -24
-17 -10 -10 -24 -18 -32 -18 -8 0 -14 -4 -14 -10 0 -5 -7 -10 -15 -10 -8 0
-15 -4 -15 -9 0 -5 -11 -8 -25 -6 -14 1 -25 -2 -25 -8 0 -5 -8 -3 -17 4 -9 8
-14 9 -10 3 5 -9 -8 -11 -43 -10 -30 2 -50 -2 -50 -8 0 -6 -4 -5 -9 2 -11 18
-12 18 -38 3 -17 -9 -23 -9 -23 0 0 8 -4 8 -12 2 -7 -6 -21 -9 -30 -8 -10 2
-18 0 -18 -5 0 -4 -10 -7 -22 -7 -30 0 -78 -20 -78 -33 0 -5 -11 -12 -25 -16
-14 -4 -24 -9 -21 -11 3 -3 -13 -23 -35 -45 -36 -36 -41 -45 -38 -64 0 -4 -3
-10 -8 -13 -4 -3 -15 -15 -23 -25 -13 -18 -13 -19 0 -11 12 7 13 6 4 -6 -6 -8
-12 -21 -12 -29 -1 -8 -3 -26 -5 -40 -1 -14 2 -28 8 -32 6 -5 6 -8 -2 -8 -9 0
-10 -7 -3 -24 5 -13 6 -27 3 -30 -4 -3 -2 -6 4 -6 9 0 13 -13 14 -52 0 -10 4
-18 9 -18 4 0 11 -7 14 -16 3 -8 2 -12 -4 -9 -6 3 -7 -1 -4 -9 3 -9 10 -16 15
-16 5 0 9 -9 9 -20 0 -11 5 -20 10 -20 6 0 10 -7 10 -15 0 -8 5 -15 10 -15 6
0 10 -7 10 -15 0 -8 4 -15 9 -15 5 0 12 -8 15 -18 4 -11 18 -25 31 -32 14 -7
25 -18 25 -23 0 -16 110 -95 110 -79 0 4 5 -1 11 -10 5 -10 21 -18 33 -18 13
0 27 -8 30 -17 6 -15 8 -15 16 -3 7 12 10 11 16 -4 5 -14 9 -15 15 -4 7 10 9
8 9 -6 0 -11 3 -16 7 -13 3 4 13 1 21 -6 13 -10 14 -9 7 3 -6 12 -5 13 6 3 7
-7 25 -13 41 -13 15 0 31 -8 37 -17 6 -10 11 -13 11 -5 0 15 63 7 68 -9 3 -6
9 -5 18 2 11 9 14 9 14 0 0 -8 5 -9 19 -1 14 7 21 6 24 -3 4 -9 6 -8 6 2 1 10
5 11 14 3 6 -6 32 -12 57 -14 25 -2 51 -7 58 -12 7 -4 16 -5 19 -2 3 3 15 1
26 -5 14 -8 18 -8 13 0 -4 6 -2 11 3 11 6 0 11 -5 11 -12 0 -6 3 -8 7 -5 3 4
12 2 20 -4 9 -9 13 -8 13 0 0 8 5 9 19 2 10 -6 21 -7 25 -4 11 11 51 11 58 -1
5 -7 8 -7 8 -1 0 6 12 10 28 9 15 -1 27 -3 27 -4 0 -1 17 -3 37 -4 21 -1 40
-5 44 -8 3 -4 12 -4 20 -1 8 3 14 -1 15 -8 0 -8 2 -24 3 -36 2 -14 -3 -23 -11
-23 -7 0 -12 -3 -12 -7 3 -20 -3 -34 -23 -53 -12 -11 -18 -20 -14 -20 4 0 0
-7 -8 -16 -9 -8 -14 -19 -11 -24 3 -5 -4 -11 -15 -15 -11 -4 -18 -11 -15 -16
4 -5 1 -9 -6 -9 -7 0 -9 -3 -6 -6 4 -4 -3 -15 -15 -25 -11 -11 -18 -19 -15
-19 6 0 -13 -27 -40 -55 -7 -8 -13 -19 -13 -25 0 -6 -7 -13 -15 -16 -8 -4 -15
-13 -15 -21 0 -8 -5 -11 -11 -7 -7 4 -10 1 -7 -7 3 -8 -4 -22 -15 -31 -12 -11
-15 -18 -7 -18 7 0 1 -11 -14 -25 -15 -14 -25 -25 -22 -25 3 0 -11 -27 -30
-61 -18 -33 -34 -65 -34 -70 0 -5 -4 -9 -10 -9 -5 0 -10 -3 -9 -7 3 -19 -14
-52 -24 -46 -6 4 -8 -2 -5 -15 4 -15 2 -22 -8 -22 -8 0 -13 -3 -13 -7 4 -26
-3 -54 -19 -69 -9 -10 -16 -19 -14 -21 1 -2 -5 -19 -13 -39 -8 -20 -15 -42
-15 -49 0 -8 -5 -15 -12 -17 -6 -2 -13 -17 -14 -34 -6 -49 -7 -54 -15 -54 -4
0 -6 -9 -4 -20 2 -11 -1 -20 -6 -20 -6 0 -8 -4 -4 -9 3 -5 1 -12 -4 -15 -5 -4
-8 -17 -6 -31 1 -14 -2 -25 -7 -25 -5 0 -6 -4 -3 -10 3 -5 0 -10 -7 -10 -9 0
-9 -3 2 -10 8 -5 10 -10 4 -10 -6 0 -10 -10 -9 -22 1 -13 0 -27 -4 -33 -3 -5
-7 -21 -9 -35 -2 -13 -9 -28 -15 -32 -8 -5 -8 -8 -1 -8 6 0 10 -10 8 -22 -1
-13 -3 -27 -3 -31 -1 -5 -5 -5 -11 -2 -7 4 -7 -3 0 -19 5 -14 6 -26 2 -26 -4
0 -8 -15 -8 -33 -1 -17 -5 -44 -8 -59 -4 -19 -2 -28 6 -28 10 0 10 -2 1 -8 -7
-4 -12 -16 -13 -27 -2 -86 -5 -103 -13 -98 -5 3 -4 -4 3 -16 9 -17 9 -26 -1
-37 -9 -11 -9 -14 2 -14 12 0 12 -2 0 -9 -9 -6 -10 -10 -2 -12 9 -3 9 -12 2
-32 -7 -18 -7 -27 0 -27 6 0 6 -7 -1 -20 -6 -12 -7 -20 -1 -20 11 0 9 -19 -3
-39 -5 -7 -5 -16 1 -20 5 -3 10 -35 12 -71 1 -36 8 -71 14 -79 9 -11 9 -13 0
-8 -8 5 -11 0 -10 -13 1 -11 4 -20 8 -20 3 0 6 -18 6 -40 0 -21 4 -45 9 -52 5
-7 9 -32 9 -55 0 -27 5 -45 14 -48 11 -4 11 -8 1 -20 -7 -8 -8 -15 -3 -15 10
0 11 -6 14 -55 1 -14 4 -25 8 -25 4 0 8 -14 9 -31 1 -17 10 -41 18 -55 9 -13
13 -24 9 -24 -5 0 0 -9 9 -19 13 -14 14 -21 5 -27 -8 -5 -10 -3 -4 6 5 9 4 11
-3 6 -9 -5 -7 -14 5 -33 10 -14 19 -35 20 -47 2 -11 7 -23 11 -26 4 -3 9 -14
10 -25 2 -11 10 -27 18 -36 8 -9 11 -19 7 -22 -3 -4 -1 -7 5 -7 7 0 11 -3 11
-7 -3 -19 2 -34 9 -29 4 2 9 -5 9 -16 1 -11 10 -30 20 -41 10 -11 12 -17 5
-13 -11 7 -11 4 0 -13 7 -12 16 -21 21 -21 4 0 6 -4 2 -9 -3 -5 1 -16 9 -23
22 -22 46 -75 38 -83 -4 -5 -1 -5 6 -1 9 5 15 1 19 -13 3 -12 9 -21 14 -21 5
0 9 -7 9 -15 0 -8 5 -15 12 -15 6 0 9 -3 5 -6 -3 -3 3 -15 13 -27 11 -11 17
-25 13 -30 -3 -6 -2 -8 3 -5 5 2 19 -6 31 -18 14 -15 17 -25 10 -28 -7 -2 -4
-5 7 -5 12 -1 16 -6 13 -15 -4 -9 2 -17 14 -21 11 -4 18 -9 15 -12 -3 -3 6
-16 19 -29 14 -13 25 -26 25 -30 0 -3 13 -18 28 -32 16 -15 31 -35 35 -44 3
-10 13 -18 22 -18 8 0 15 -7 15 -16 0 -8 5 -12 10 -9 6 3 10 -1 10 -9 0 -9 4
-16 9 -16 15 0 91 -77 83 -84 -3 -4 1 -4 11 0 11 4 17 1 17 -8 0 -17 46 -59
55 -50 3 4 3 -1 -1 -11 -5 -13 -1 -17 17 -17 17 0 20 -3 11 -9 -10 -6 -7 -10
12 -15 15 -4 24 -11 21 -16 -3 -6 5 -14 19 -20 14 -5 26 -14 26 -20 0 -6 4 -9
8 -6 5 3 15 -4 22 -15 8 -10 20 -19 26 -19 7 0 15 -7 18 -16 3 -8 10 -12 16
-9 5 3 10 0 10 -8 0 -13 33 -31 53 -28 4 1 7 -6 7 -14 0 -8 20 -24 44 -35 25
-11 48 -25 51 -30 4 -6 11 -8 16 -5 5 4 9 1 9 -4 0 -6 7 -11 15 -11 8 0 15 -4
15 -8 0 -4 16 -14 35 -21 19 -7 35 -17 35 -22 0 -5 7 -9 16 -9 9 0 12 -5 8
-12 -4 -7 -3 -8 5 -4 6 4 23 1 36 -8 13 -9 30 -16 36 -16 7 0 18 -8 26 -17 8
-10 12 -12 8 -6 -4 9 -1 11 9 7 9 -3 16 -10 16 -15 0 -5 9 -9 20 -9 11 0 20
-4 20 -10 0 -5 5 -10 11 -10 5 0 7 6 3 13 -4 6 2 4 13 -6 11 -9 23 -14 26 -10
4 3 7 2 7 -4 0 -6 7 -14 16 -17 10 -4 13 -2 9 7 -4 6 0 4 8 -5 8 -10 17 -15
20 -11 4 3 7 1 7 -4 0 -6 8 -10 18 -9 9 2 22 -4 29 -13 7 -10 12 -11 13 -4 0
9 8 8 28 -3 15 -7 35 -14 45 -14 9 0 17 -6 17 -12 0 -9 4 -8 10 2 7 12 10 12
10 1 0 -7 6 -11 15 -7 8 3 15 1 15 -3 0 -5 8 -8 18 -7 9 2 20 -2 24 -8 5 -8
13 -7 29 2 11 8 18 9 15 4 -6 -11 51 -25 65 -16 5 3 9 0 9 -6 0 -6 5 -8 10 -5
6 3 10 2 10 -3 0 -5 14 -7 30 -4 17 2 30 0 30 -5 0 -5 12 -8 28 -8 15 1 33 -3
40 -8 6 -5 12 -6 12 -2 0 4 8 1 17 -6 15 -12 16 -12 8 1 -7 12 -6 13 6 3 12
-10 18 -10 29 0 10 9 11 9 6 0 -5 -9 2 -13 24 -13 17 0 29 -4 26 -9 -4 -5 2
-8 11 -6 10 2 18 4 18 5 0 8 72 6 82 -1 7 -7 14 -6 18 1 3 6 11 8 16 4 5 -3 7
-8 5 -12 -2 -4 9 -7 25 -7 16 0 29 2 29 5 0 3 18 5 40 5 22 0 40 -3 40 -6 0
-7 68 -2 82 7 6 4 8 3 4 -4 -3 -6 -2 -13 4 -17 5 -3 10 1 10 9 0 9 5 16 11 16
5 0 8 -4 5 -8 -2 -4 10 -8 29 -8 19 0 32 3 30 6 -2 4 18 3 45 0 32 -4 51 -2
54 4 3 7 5 7 5 -1 1 -8 10 -9 30 -3 15 4 34 4 42 -1 8 -4 19 -3 26 3 10 8 13
7 13 -3 0 -12 2 -12 9 0 6 10 13 10 29 2 15 -8 23 -7 33 5 9 11 14 12 20 3 6
-10 11 -10 22 0 8 6 27 10 41 7 14 -3 26 -1 26 4 0 5 7 7 15 4 8 -4 15 -1 15
6 0 10 3 10 15 0 9 -8 15 -9 15 -2 0 6 9 9 20 7 11 -2 20 -1 20 3 0 5 12 9 28
10 51 3 62 5 62 14 0 5 5 6 10 3 6 -3 10 -1 10 6 0 8 4 8 15 -1 11 -9 15 -9
15 -1 0 7 4 10 9 6 5 -3 12 -1 16 5 4 6 10 8 15 5 5 -3 11 -1 15 5 3 5 14 10
24 10 10 0 24 6 31 14 6 8 18 12 26 9 8 -3 21 0 29 7 8 6 18 9 24 6 5 -4 15
-1 23 6 7 7 19 13 26 14 37 3 43 5 38 12 -3 5 5 8 17 7 12 -1 31 4 43 12 11 7
24 10 27 6 4 -3 7 -1 7 5 0 7 3 11 8 11 14 -3 72 23 72 33 0 5 4 7 9 3 5 -3
12 -1 16 5 4 6 11 8 16 5 5 -4 9 -1 9 5 0 6 5 8 10 5 6 -3 10 -2 10 3 0 8 42
26 46 19 1 -1 11 6 22 16 12 11 26 16 32 12 6 -3 9 -1 8 7 -2 7 3 12 10 10 6
-1 12 2 12 7 0 5 14 14 30 21 17 7 30 17 30 23 0 6 3 7 7 4 3 -4 12 -2 20 4 7
6 13 8 13 3 0 -4 7 1 16 12 8 10 12 12 8 4 -8 -16 30 12 54 39 7 9 12 10 12 3
0 -6 12 0 26 13 15 14 32 22 38 18 6 -3 8 -3 4 2 -4 4 16 25 45 46 29 21 59
44 67 51 8 7 17 13 19 13 3 0 17 11 32 25 39 37 89 79 89 74 0 -2 10 7 23 19
13 12 22 25 20 30 -2 4 2 7 10 7 8 0 32 17 53 38 20 20 41 36 46 35 4 -2 8 2
8 7 0 15 103 115 115 112 6 -2 7 0 2 4 -4 4 3 18 15 31 12 13 17 23 12 23 -5
0 5 9 21 20 17 11 30 23 30 27 0 14 68 113 77 113 5 0 7 4 3 9 -3 5 -1 12 5
16 6 4 8 11 5 16 -4 5 1 9 9 9 9 0 16 7 16 15 0 8 5 15 10 15 6 0 10 9 10 21
0 11 5 17 10 14 6 -3 10 0 10 8 0 8 9 24 20 37 11 13 20 29 20 37 0 7 5 13 10
13 6 0 10 7 10 15 0 8 5 15 11 15 5 0 8 4 5 9 -3 5 1 12 10 15 8 3 12 10 9 16
-3 5 -1 10 5 10 6 0 8 5 5 10 -3 6 1 17 10 26 9 9 14 23 11 31 -3 8 -1 11 4 8
6 -3 10 1 10 9 0 9 4 16 8 16 4 0 9 10 9 22 1 13 7 24 13 26 5 2 10 12 10 23
0 10 5 19 10 19 6 0 10 9 10 21 0 11 4 18 9 14 6 -3 8 4 6 15 -2 11 1 20 6 20
5 0 9 6 8 13 -1 6 4 26 11 42 7 17 13 33 12 38 -1 4 3 7 9 7 5 0 7 5 4 10 -3
6 0 10 7 10 9 0 9 3 -2 10 -13 9 -13 12 0 23 9 6 14 20 12 30 -2 9 1 17 7 17
6 0 8 7 5 15 -4 9 0 15 7 15 11 0 11 3 -1 10 -12 7 -12 10 -1 10 7 0 11 6 8
15 -4 8 -2 17 4 20 5 4 7 17 5 31 -3 16 -1 22 6 18 7 -5 9 -1 5 9 -3 10 -2 17
2 17 5 0 8 11 7 25 -2 15 1 22 7 18 6 -4 8 0 4 10 -3 9 -1 19 5 23 7 4 6 9 -3
15 -12 7 -12 9 0 9 7 0 11 6 7 15 -3 8 -2 15 3 15 5 0 7 10 7 23 -1 12 2 27 6
33 5 7 8 16 7 20 -1 5 0 11 1 14 5 14 12 48 14 75 2 19 8 29 17 27 11 -3 11
-1 2 9 -8 8 -9 18 -3 30 6 10 6 20 2 23 -10 6 -8 32 3 59 4 9 5 29 3 42 -3 14
-1 25 5 25 5 0 3 8 -4 17 -10 11 -10 14 -1 9 6 -4 12 -3 12 3 0 5 -5 13 -11
17 -8 4 -7 9 2 15 11 7 11 9 -1 9 -13 0 -13 1 0 10 12 8 13 11 1 19 -9 6 -10
11 -2 15 6 4 11 12 11 17 0 6 -6 7 -12 3 -9 -5 -9 -2 1 9 10 13 10 17 1 17 -9
0 -10 3 -1 13 8 10 7 17 -2 27 -9 10 -9 11 1 6 15 -9 16 6 0 22 -7 7 -8 12 -2
12 9 0 9 82 -1 108 -2 6 1 12 8 12 8 0 8 3 -2 9 -11 7 -11 9 0 14 12 5 12 7 0
15 -9 7 -10 11 -2 17 9 5 9 11 -1 23 -10 12 -10 14 0 8 15 -9 16 6 0 22 -9 9
-9 12 1 12 11 0 11 3 0 17 -12 15 -12 16 1 8 11 -7 10 -2 -4 19 -11 17 -13 25
-5 20 12 -6 12 -5 0 9 -10 13 -10 17 -1 17 10 0 10 3 0 15 -10 12 -10 19 -2
27 9 9 7 17 -6 32 -9 11 -11 16 -4 12 11 -7 12 -4 4 11 -6 10 -9 31 -8 46 2
15 0 27 -4 27 -5 0 -6 10 -2 22 3 12 1 19 -4 15 -5 -3 -9 10 -8 29 1 19 -3 34
-9 34 -8 0 -8 3 0 11 9 9 8 17 -1 33 -7 11 -12 28 -11 36 0 8 -2 17 -6 20 -4
3 -9 19 -11 35 -2 17 -9 40 -16 53 -7 12 -10 22 -7 22 3 0 1 8 -4 18 -7 13 -6
23 2 32 9 10 9 11 0 6 -12 -6 -18 11 -14 37 0 4 -4 7 -9 7 -6 0 -10 10 -10 23
0 13 -5 28 -12 35 -9 9 -9 12 0 12 9 0 8 8 -4 25 -9 14 -12 25 -8 25 5 0 3 4
-4 8 -7 5 -14 23 -15 40 -1 20 -7 32 -16 32 -8 0 -11 3 -8 7 4 3 1 13 -6 21
-10 13 -9 14 3 7 14 -8 -25 38 -62 74 -39 37 -108 75 -108 59 0 -7 -7 -5 -17
4 -12 9 -39 14 -75 14 -32 -1 -58 3 -58 8 0 4 -6 6 -14 3 -8 -3 -17 -1 -20 6
-3 8 -7 9 -13 2 -10 -12 -43 -16 -43 -5 0 4 -17 6 -37 5 -21 -1 -44 2 -50 8
-9 6 -13 6 -13 -2 0 -7 -5 -9 -12 -5 -17 11 -108 12 -102 2 3 -4 -5 -4 -18 0
-13 4 -68 8 -123 7 -58 0 -103 4 -107 10 -5 6 -8 5 -8 -3 0 -8 -5 -10 -12 -6
-18 12 -58 11 -58 -1 0 -7 -3 -6 -8 1 -4 5 -32 11 -62 11 -102 1 -150 7 -150
17 0 6 -4 5 -9 -3 -5 -7 -14 -10 -21 -6 -7 4 -51 8 -98 9 -48 1 -93 5 -99 9
-8 5 -13 3 -13 -3 0 -7 -6 -8 -17 -2 -10 5 -27 8 -38 6 -11 -1 -23 2 -27 9 -4
7 -8 8 -8 2 0 -5 -11 -11 -25 -11 -15 -1 -22 2 -18 9 4 6 1 7 -8 1 -20 -12
-59 -13 -59 -1 0 5 -7 4 -15 -3 -11 -9 -19 -9 -28 -2 -7 6 -18 8 -24 4 -10 -7
-68 -8 -68 -2 0 2 -16 4 -36 5 -20 1 -42 5 -48 9 -6 4 -11 1 -11 -6 0 -8 -3
-9 -8 -3 -4 6 -20 10 -37 10 -16 0 -37 3 -46 7 -9 4 -21 2 -27 -4 -7 -7 -12
-8 -12 -2 0 5 -11 9 -24 9 -13 0 -22 -3 -20 -6 2 -4 -11 -5 -29 -4 -17 2 -38
-2 -46 -9 -12 -9 -13 -8 -7 3 7 10 2 12 -23 6 -20 -4 -31 -3 -31 4 0 6 -7 11
-15 11 -9 0 -18 7 -21 15 -4 8 -10 12 -15 9 -5 -3 -9 0 -9 5 0 6 -7 11 -15 11
-8 0 -15 5 -15 11 0 6 -6 9 -12 7 -16 -6 -41 19 -34 31 4 5 0 12 -6 14 -8 3
-6 6 5 6 9 1 17 8 17 16 0 8 5 15 11 15 5 0 8 4 5 9 -3 5 1 12 10 15 8 3 12
10 9 16 -3 5 1 10 9 10 9 0 16 5 16 10 0 18 4 25 33 53 15 15 23 27 17 27 -7
0 -6 5 2 14 7 8 17 11 22 8 5 -3 7 2 3 11 -3 8 1 21 8 27 8 7 12 16 9 21 -3 5
0 9 6 9 6 0 8 5 5 10 -3 6 1 13 9 16 9 3 13 10 10 15 -3 5 -1 9 5 9 6 0 8 7 5
15 -4 8 -1 15 7 15 7 0 10 3 6 6 -3 4 0 19 9 35 8 16 11 29 8 29 -4 0 1 10 12
22 10 12 13 18 7 14 -19 -10 -16 4 5 27 9 11 12 17 5 14 -7 -5 -5 6 5 25 9 18
15 41 13 52 -1 10 2 16 8 12 6 -4 9 4 6 24 -2 17 1 30 7 30 6 0 8 11 6 25 -3
14 -1 25 3 25 5 0 8 3 8 8 -1 4 0 9 1 12 2 6 8 53 13 100 2 20 7 42 12 49 5
10 4 12 -3 7 -8 -5 -10 -2 -6 8 3 9 9 14 13 12 3 -2 6 18 6 45 0 27 -3 49 -6
49 -4 0 -3 18 1 39 4 22 4 45 -1 52 -4 7 -5 17 -3 21 11 17 13 48 3 42 -6 -3
-10 2 -9 12 1 11 1 21 0 24 -8 21 -6 40 3 40 8 0 8 3 -1 9 -7 4 -14 22 -14 39
-1 18 -4 32 -8 32 -4 0 -6 14 -5 30 1 17 -3 30 -8 30 -5 0 -4 6 2 14 9 11 9
16 0 22 -8 5 -9 3 -4 -6 5 -9 4 -11 -4 -6 -6 4 -9 16 -6 26 3 10 1 21 -4 24
-6 4 -8 13 -4 21 3 8 1 15 -4 15 -5 0 -10 7 -11 15 -1 8 -3 22 -4 30 -1 8 -5
15 -10 15 -4 0 -8 9 -8 20 0 11 -6 20 -12 20 -9 0 -8 4 2 10 10 6 11 10 3 10
-7 0 -13 9 -13 20 0 11 -4 20 -10 20 -5 0 -10 9 -10 20 0 11 -4 20 -10 20 -5
0 -10 9 -10 20 0 11 -4 20 -10 20 -5 0 -10 7 -10 15 0 8 -4 15 -10 15 -5 0
-10 7 -10 16 0 9 -5 12 -12 8 -7 -4 -8 -3 -4 4 4 6 -1 20 -11 32 -10 11 -17
23 -15 25 1 3 -11 19 -28 36 -16 17 -32 40 -35 50 -4 11 -13 19 -21 19 -8 0
-13 4 -9 9 3 6 -22 38 -55 72 -33 34 -60 65 -60 70 0 5 -7 9 -16 9 -8 0 -12 5
-9 10 3 6 1 10 -4 10 -6 0 -24 13 -39 30 -16 16 -32 27 -35 23 -4 -3 -7 1 -7
11 0 9 -4 14 -10 11 -5 -3 -10 -1 -10 5 0 6 -4 8 -10 5 -5 -3 -10 1 -10 9 0
10 -6 13 -17 9 -10 -3 -15 -2 -11 2 10 11 -29 38 -42 30 -6 -3 -10 1 -10 9 0
9 -7 16 -15 16 -8 0 -15 4 -15 9 0 5 -11 12 -25 15 -14 4 -25 11 -25 17 0 6
-4 7 -10 4 -5 -3 -10 -2 -10 2 0 5 -16 15 -35 22 -19 7 -35 17 -35 23 0 6 -3
8 -7 5 -3 -4 -12 1 -20 11 -8 9 -12 11 -8 5 3 -7 2 -13 -4 -13 -5 0 -11 5 -13
10 -2 6 -13 12 -25 13 -12 0 -19 5 -17 9 3 4 2 8 -3 9 -30 3 -59 11 -72 22
-12 9 -13 9 -7 0 5 -9 2 -11 -8 -7 -9 3 -16 10 -16 16 0 5 -4 6 -10 3 -5 -3
-10 0 -10 7 0 10 -2 10 -9 -1 -6 -9 -11 -10 -15 -2 -4 6 -12 9 -17 6 -5 -4 -9
-2 -9 3 0 9 -7 10 -55 13 -14 1 -25 6 -25 11 0 5 -9 6 -20 3 -11 -4 -20 -2
-20 4 0 6 -5 11 -11 11 -5 0 -7 -6 -3 -12 4 -7 -3 -4 -16 7 -13 11 -20 15 -17
8 5 -8 0 -11 -13 -10 -11 1 -20 4 -20 7 0 3 -39 6 -87 8 -48 2 -94 8 -102 15
-9 7 -12 7 -8 1z"/>
</g>
</svg>
