<?xml version="1.0" standalone="no"?>
<!DOCTYPE svg PUBLIC "-//W3C//DTD SVG 20010904//EN"
 "http://www.w3.org/TR/2001/REC-SVG-20010904/DTD/svg10.dtd">
<svg version="1.0" xmlns="http://www.w3.org/2000/svg"
 width="700.000000pt" height="700.000000pt" viewBox="0 0 700.000000 700.000000"
 preserveAspectRatio="xMidYMid meet">
<metadata>
Created by potrace 1.14, written by Peter Selinger 2001-2017
</metadata>
<g transform="translate(0.000000,700.000000) scale(0.100000,-0.100000)"
fill="#000000" stroke="none">
<path d="M2325 6990 c-11 -4 -31 -20 -45 -35 -23 -24 -25 -36 -28 -125 l-4
-98 -61 -12 c-89 -19 -261 -81 -342 -125 -329 -178 -554 -443 -678 -800 -19
-55 -35 -104 -35 -110 -1 -10 -7 -45 -17 -95 -9 -42 -18 -162 -19 -232 0 -66
-1 -68 -26 -69 -14 0 -81 -1 -149 -1 -188 -1 -276 -29 -368 -116 -232 -220
-148 -599 155 -701 52 -18 86 -21 222 -21 88 0 161 -3 161 -7 1 -5 3 -244 4
-533 3 -552 6 -619 31 -760 2 -14 7 -40 10 -59 11 -67 65 -244 105 -344 112
-284 285 -536 515 -747 103 -95 126 -113 252 -197 173 -115 387 -216 562 -264
25 -7 50 -14 55 -15 130 -37 315 -62 468 -65 l87 -1 0 -501 0 -502 -267 1
c-179 0 -282 -4 -309 -12 -171 -48 -217 -267 -82 -391 55 -51 76 -53 567 -53
l457 0 52 26 c29 14 52 30 52 34 0 5 23 -5 52 -23 l51 -32 476 -2 c455 -2 478
-1 515 17 57 29 85 58 112 115 l24 50 0 636 0 635 108 2 c165 3 260 15 389 47
524 133 939 512 1116 1022 20 55 38 113 41 129 2 16 7 40 11 54 12 57 23 124
30 195 9 91 6 1439 -4 1471 -44 153 -201 232 -349 176 -101 -39 -160 -124
-166 -240 -3 -37 -5 -70 -5 -75 -1 -4 -34 20 -75 53 -41 33 -76 60 -79 60 -3
0 -29 16 -58 36 -153 104 -427 205 -629 231 -85 11 -117 11 -715 12 l-601 1
-1 403 c-1 370 -4 475 -18 550 -3 15 -7 38 -9 52 -27 153 -143 413 -243 547
-185 245 -425 418 -703 506 -52 16 -114 33 -137 37 -24 4 -43 8 -43 10 0 2 11
21 25 41 30 45 32 86 4 130 -51 83 -131 80 -219 -10 -25 -25 -48 -45 -52 -46
-5 0 -8 17 -8 39 0 76 -91 132 -165 101z m2006 -5539 c1 -3 2 -226 2 -494 1
-317 -2 -491 -8 -495 -5 -4 -134 -7 -285 -9 -151 -1 -284 -3 -294 -5 -19 -3
-19 10 -21 497 0 275 0 503 2 506 3 8 603 8 604 0z"/>
</g>
</svg>
